<?xml version="1.0" standalone="no"?>
<!DOCTYPE svg PUBLIC "-//W3C//DTD SVG 20010904//EN"
 "http://www.w3.org/TR/2001/REC-SVG-20010904/DTD/svg10.dtd">
<svg version="1.0" xmlns="http://www.w3.org/2000/svg"
 width="16.000000pt" height="16.000000pt" viewBox="0 0 16.000000 16.000000"
 preserveAspectRatio="xMidYMid meet">
<metadata>
Created by potrace 1.11, written by Peter Selinger 2001-2013
</metadata>
<g transform="translate(0.000000,16.000000) scale(0.002133,-0.002133)"
fill="#000000" stroke="none">
<path d="M3149 5572 l-465 -2 1 -80 c0 -43 4 -82 7 -86 4 -3 37 -8 74 -9 58
-3 112 -10 164 -20 113 -23 220 -107 248 -195 9 -25 12 -333 13 -1085 2 -1658
2 -1620 -25 -1686 -54 -134 -183 -209 -380 -224 -38 -3 -72 -7 -74 -10 -4 -4
-6 -88 -3 -137 1 -17 45 -18 774 -18 l773 0 -1 74 c0 41 -3 77 -6 81 -3 3 -37
8 -75 10 -265 17 -415 131 -441 335 -12 92 -10 1115 2 1113 6 0 26 -4 45 -7
19 -3 53 -9 75 -12 22 -3 51 -7 65 -10 110 -19 588 -27 723 -11 82 9 250 48
331 77 284 102 498 311 575 564 21 68 25 86 41 181 8 47 5 275 -4 340 -47 329
-207 559 -485 695 -99 49 -215 81 -411 116 -46 9 -700 11 -1541 6z m1167 -186
c12 -2 39 -7 60 -10 22 -4 73 -16 114 -27 403 -109 591 -423 547 -909 -30
-334 -203 -568 -477 -646 -105 -31 -430 -25 -681 10 -59 9 -117 20 -131 25
l-23 9 1 663 c0 365 4 684 8 709 16 88 73 162 134 176 15 3 32 8 37 10 13 5
383 -4 411 -10z"/>
<path d="M1631 4205 c-155 -44 -224 -148 -223 -340 0 -109 29 -184 93 -247 67
-66 137 -87 285 -84 102 1 115 4 169 31 110 56 158 154 158 320 -1 153 -51
248 -160 301 -48 24 -70 28 -162 31 -73 2 -123 -2 -160 -12z"/>
<path d="M1613 2631 c-67 -25 -95 -46 -131 -101 -76 -117 -73 -316 6 -411 15
-18 104 -70 117 -69 3 1 20 -2 38 -5 17 -3 57 -7 87 -8 95 -6 126 -44 123
-151 -3 -95 -11 -127 -50 -206 -47 -93 -183 -234 -320 -330 -51 -35 -93 -67
-93 -71 0 -8 55 -94 71 -113 11 -12 177 85 289 170 188 142 303 282 368 449
50 128 65 211 64 355 -1 245 -67 390 -212 465 -90 47 -265 59 -357 26z"/>
</g>
</svg>
